<svg width="24" height="25" viewBox="0 0 24 25" fill="none" xmlns="http://www.w3.org/2000/svg">
<mask id="mask0_16_198" style="mask-type:alpha" maskUnits="userSpaceOnUse" x="0" y="0" width="24" height="25">
<rect y="0.5" width="24" height="24" fill="#D9D9D9"/>
</mask>
<g mask="url(#mask0_16_198)">
<path d="M11.404 4.5H10.8783C10.7114 4.5 10.5529 4.51667 10.4027 4.55C11.3539 5.65 12.0924 6.87917 12.6181 8.2375C13.1438 9.59583 13.4066 11.0167 13.4066 12.5C13.4066 13.9833 13.1438 15.4042 12.6181 16.7625C12.0924 18.1208 11.3539 19.35 10.4027 20.45C10.5529 20.4833 10.7114 20.5 10.8783 20.5H11.404C13.6235 20.5 15.5135 19.7208 17.0739 18.1625C18.6342 16.6042 19.4144 14.7167 19.4144 12.5C19.4144 10.2833 18.6342 8.39583 17.0739 6.8375C15.5135 5.27917 13.6235 4.5 11.404 4.5ZM11.404 2.5C12.7891 2.5 14.0908 2.7625 15.3091 3.2875C16.5273 3.8125 17.587 4.525 18.4882 5.425C19.3894 6.325 20.1028 7.38333 20.6285 8.6C21.1542 9.81667 21.417 11.1167 21.417 12.5C21.417 13.8833 21.1542 15.1833 20.6285 16.4C20.1028 17.6167 19.3894 18.675 18.4882 19.575C17.587 20.475 16.5273 21.1875 15.3091 21.7125C14.0908 22.2375 12.7891 22.5 11.404 22.5C10.5195 22.5 9.65587 22.3875 8.81311 22.1625C7.97034 21.9375 7.16513 21.6 6.39746 21.15C7.94948 20.25 9.17191 19.0333 10.0647 17.5C10.9576 15.9667 11.404 14.3 11.404 12.5C11.404 10.7 10.9576 9.03333 10.0647 7.5C9.17191 5.96667 7.94948 4.75 6.39746 3.85C7.16513 3.4 7.97034 3.0625 8.81311 2.8375C9.65587 2.6125 10.5195 2.5 11.404 2.5Z" fill="#1C1B1F"/>
</g>
</svg>
