<svg width="16" height="17" viewBox="0 0 16 17" fill="none" xmlns="http://www.w3.org/2000/svg">
<path d="M8 14.5001C6.46667 14.5001 5.13056 13.9917 3.99167 12.9751C2.85278 11.9584 2.2 10.689 2.03333 9.16673H3.4C3.55556 10.3223 4.06944 11.2778 4.94167 12.0334C5.81389 12.7889 6.83333 13.1667 8 13.1667C9.3 13.1667 10.4028 12.714 11.3083 11.8084C12.2139 10.9028 12.6667 9.80006 12.6667 8.50006C12.6667 7.20006 12.2139 6.09728 11.3083 5.19173C10.4028 4.28617 9.3 3.83339 8 3.83339C7.23333 3.83339 6.51667 4.01117 5.85 4.36673C5.18333 4.72228 4.62222 5.21117 4.16667 5.83339H6V7.16673H2V3.16673H3.33333V4.73339C3.9 4.02228 4.59167 3.47228 5.40833 3.08339C6.225 2.69451 7.08889 2.50006 8 2.50006C8.83333 2.50006 9.61389 2.65839 10.3417 2.97506C11.0694 3.29173 11.7028 3.71951 12.2417 4.25839C12.7806 4.79728 13.2083 5.43062 13.525 6.15839C13.8417 6.88617 14 7.66673 14 8.50006C14 9.33339 13.8417 10.1139 13.525 10.8417C13.2083 11.5695 12.7806 12.2028 12.2417 12.7417C11.7028 13.2806 11.0694 13.7084 10.3417 14.0251C9.61389 14.3417 8.83333 14.5001 8 14.5001ZM9.86667 11.3001L7.33333 8.76673V5.16673H8.66667V8.23339L10.8 10.3667L9.86667 11.3001Z" fill="#1C1B1F"/>
<mask id="mask0_16_83" style="mask-type:alpha" maskUnits="userSpaceOnUse" x="0" y="0" width="16" height="17">
<rect y="0.500061" width="16" height="16" fill="#D9D9D9"/>
</mask>
<g mask="url(#mask0_16_83)">
</g>
</svg>
