<svg width="16" height="17" viewBox="0 0 16 17" fill="none" xmlns="http://www.w3.org/2000/svg">
<mask id="mask0_16_86" style="mask-type:alpha" maskUnits="userSpaceOnUse" x="0" y="0" width="16" height="17">
<rect y="0.500061" width="16" height="16" fill="#D9D9D9"/>
</mask>
<g mask="url(#mask0_16_86)">
<path d="M8.00002 15.1667C7.16669 15.1667 6.38614 15.0084 5.65836 14.6917C4.93058 14.3751 4.29725 13.9473 3.75836 13.4084C3.21947 12.8695 2.79169 12.2362 2.47502 11.5084C2.15836 10.7806 2.00002 10.0001 2.00002 9.16673C2.00002 8.33339 2.15836 7.55284 2.47502 6.82506C2.79169 6.09728 3.21947 5.46395 3.75836 4.92506C4.29725 4.38617 4.93058 3.95839 5.65836 3.64173C6.38614 3.32506 7.16669 3.16673 8.00002 3.16673C8.83336 3.16673 9.61391 3.32506 10.3417 3.64173C11.0695 3.95839 11.7028 4.38617 12.2417 4.92506C12.7806 5.46395 13.2084 6.09728 13.525 6.82506C13.8417 7.55284 14 8.33339 14 9.16673C14 10.0001 13.8417 10.7806 13.525 11.5084C13.2084 12.2362 12.7806 12.8695 12.2417 13.4084C11.7028 13.9473 11.0695 14.3751 10.3417 14.6917C9.61391 15.0084 8.83336 15.1667 8.00002 15.1667ZM9.86669 11.9667L10.8 11.0334L8.66669 8.90006V5.83339H7.33336V9.43339L9.86669 11.9667ZM3.73336 2.06673L4.66669 3.00006L1.83336 5.83339L0.900024 4.90006L3.73336 2.06673ZM12.2667 2.06673L15.1 4.90006L14.1667 5.83339L11.3334 3.00006L12.2667 2.06673ZM8.00002 13.8334C9.30002 13.8334 10.4028 13.3806 11.3084 12.4751C12.2139 11.5695 12.6667 10.4667 12.6667 9.16673C12.6667 7.86673 12.2139 6.76395 11.3084 5.85839C10.4028 4.95284 9.30002 4.50006 8.00002 4.50006C6.70003 4.50006 5.59725 4.95284 4.69169 5.85839C3.78614 6.76395 3.33336 7.86673 3.33336 9.16673C3.33336 10.4667 3.78614 11.5695 4.69169 12.4751C5.59725 13.3806 6.70003 13.8334 8.00002 13.8334Z" fill="#1C1B1F"/>
</g>
</svg>
